# xmcd
#
# Track frame offsets:
#	150
#	10698
#	23121
#	30219
#	42117
#	54240
#	65988
#	77511
#	87984
#	95607
#	105030
#	113403
#	122376
#	134949
#	143097
#	153420
#	158793
#	166566
#	182814
#	193287
#	201360
#	211308
#	222306
#	229104
#	241602
#	252000
#	261648
#	270846
#	281019
#	292692
#
# Disc length: 4035 seconds
#
# Revision: 0
# Processed by: cddbd v1.5.2PL0 Copyright (c) Steve Scherf et al.
# Submitted via: EZCDAudioConverter 5.1.1.1
#
DISCID=900fc11e
DTITLE=Andre Lejeune - 30 grands succes
DYEAR=1900
DGENRE=Chanson quebecoise
TTITLE0=Une promesse
TTITLE1=Le chant des greves
TTITLE2=Approche
TTITLE3=Il a suffit
TTITLE4=Ce n'est pas juste
TTITLE5=Pretends que tu es heureux
TTITLE6=Je vous aime
TTITLE7=Pres de mon eglise
TTITLE8=Reviens
TTITLE9=Mouettes blanches
TTITLE10=Espere et tu vivras
TTITLE11=Alleluia
TTITLE12=L'orage
TTITLE13=Quatre tiges de roses
TTITLE14=Il suffit de peu de choses
TTITLE15=Ce n'est pas moi qui t'en voudrais
TTITLE16=Ils etaient six marins
TTITLE17=He la-bas
TTITLE18=Qu'est-ce que le rock n' roll
TTITLE19=Hissez les voiles
TTITLE20=Sacre marin
TTITLE21=Le cafe de la paix
TTITLE22=Je voudrais que la vie
TTITLE23=La danseuse
TTITLE24=Place des Tourterelles
TTITLE25=Adieu Palma
TTITLE26=Quand j'attends mon amour
TTITLE27=Je voudrais vivre pour vous
TTITLE28=La fin de semaine
TTITLE29=Meme si je suis un homme
EXTD=
EXTT0=
EXTT1=
EXTT2=
EXTT3=
EXTT4=
EXTT5=
EXTT6=
EXTT7=
EXTT8=
EXTT9=
EXTT10=
EXTT11=
EXTT12=
EXTT13=
EXTT14=
EXTT15=
EXTT16=
EXTT17=
EXTT18=
EXTT19=
EXTT20=
EXTT21=
EXTT22=
EXTT23=
EXTT24=
EXTT25=
EXTT26=
EXTT27=
EXTT28=
EXTT29=
PLAYORDER=
